<?xml version="1.0" encoding="utf-8"?>
<!-- Generator: Adobe Illustrator 17.0.0, SVG Export Plug-In . SVG Version: 6.00 Build 0)  -->
<!DOCTYPE svg PUBLIC "-//W3C//DTD SVG 1.1//EN" "http://www.w3.org/Graphics/SVG/1.1/DTD/svg11.dtd">
<svg version="1.1" xmlns="http://www.w3.org/2000/svg" xmlns:xlink="http://www.w3.org/1999/xlink" x="0px" y="0px" width="1280px"
	 height="800px" viewBox="0 0 1280 800" enable-background="new 0 0 1280 800" xml:space="preserve">
<g id="BACKGROUND">
	<rect fill="#42BFA7" width="1280" height="800"/>
</g>
<g id="OBJECTS">
	<path fill="#31AEA7" d="M0,594.5V187.657c11.855,5.174,19.941,15.437,19.941,27.268c0,1.741-0.195,3.442-0.531,5.104
		c1.344,0.384,2.671,0.798,3.991,1.223c11.093-11.039,34.192-11.342,52.659-0.379c19.086,11.331,25.957,30.371,15.347,42.527
		c-1.862,2.133-4.158,3.892-6.75,5.315c6.681,11.867,10.433,25.083,10.433,39.029c0,0.66-0.038,1.311-0.055,1.968
		c1.07-0.078,2.147-0.135,3.241-0.135c19.016,0,34.59,12.062,36.151,27.412c3.952-0.734,7.979-1.302,12.077-1.683
		c3.897-13.602,18.679-23.736,36.364-23.736c20.656,0,37.402,13.81,37.402,30.845c0,2.289-0.324,4.512-0.897,6.658
		c10.478,5.474,19.783,12.328,27.537,20.265c5.706-1.828,11.889-2.87,18.378-2.87c14.033,0,26.737,4.69,35.935,12.273
		c10.915-7.203,24.752-11.521,39.819-11.521c6.563,0,12.894,0.82,18.853,2.337c0.864-3.368,1.997-6.654,3.371-9.845
		c-15.583-2.386-27.391-13.636-27.391-27.179c0-15.279,15.019-27.665,33.546-27.665c13.526,0,25.153,6.616,30.459,16.127
		c14.964-8.234,32.936-13.042,52.275-13.042c48.321,0,88.129,29.974,93.64,68.602c3.196-0.27,6.438-0.41,9.72-0.41
		c39.78,0,73.783,20.32,87.644,49.053c13.691-3.614,28.273-5.582,43.418-5.582c23.58,0,45.8,4.757,65.383,13.128
		c9.786-18.974,32.594-32.279,59.173-32.279c27.299,0,50.607,14.042,59.926,33.839c7.632-7.299,16.679-13.557,26.804-18.479
		c-3.601-6.618-5.62-13.947-5.62-21.671c0-29.276,28.778-53.01,64.278-53.01c8.21,0,16.053,1.283,23.271,3.597
		c0.48-0.491,0.953-0.987,1.443-1.472c-7.496-5.074-12.281-12.771-12.281-21.393c0-15.279,15.019-27.665,33.545-27.665
		c5.047,0,9.815,0.945,14.108,2.592c6.804-14.657,23.975-25.083,44.14-25.083c22.364,0,41.056,12.815,45.985,30.017
		c5.182,0.482,10.273,1.201,15.272,2.128c1.974-19.411,21.67-34.664,45.717-34.664c1.383,0,2.746,0.072,4.099,0.17
		c-0.021-0.83-0.069-1.654-0.069-2.488c0-51.357,39.999-95.002,95.704-110.923c-0.426-2.102-0.672-4.253-0.672-6.455
		c0-14.962,10.226-27.941,25.218-34.483V594.5H0z"/>
	<path fill="#E0CF99" d="M1280,653.617V250.512c-11.745,5.126-19.756,15.295-19.756,27.018c0,1.725,0.193,3.411,0.526,5.058
		c-1.331,0.381-2.646,0.791-3.954,1.211c-10.99-10.938-33.874-11.238-52.17-0.375c-18.909,11.227-25.716,30.092-15.204,42.136
		c1.845,2.114,4.12,3.856,6.688,5.266c-6.619,11.758-10.336,24.853-10.336,38.67c0,0.653,0.038,1.299,0.054,1.949
		c-1.06-0.078-2.127-0.134-3.211-0.134c-18.839,0-34.269,11.951-35.815,27.16c-3.916-0.727-7.905-1.29-11.964-1.668
		c-3.861-13.477-18.505-23.518-36.026-23.518c-20.464,0-37.054,13.683-37.054,30.562c0,2.267,0.321,4.47,0.889,6.597
		c-10.38,5.424-19.599,12.215-27.281,20.078c-5.653-1.812-11.779-2.843-18.208-2.843c-13.903,0-26.489,4.647-35.601,12.16
		c-10.814-7.137-24.522-11.415-39.449-11.415c-6.502,0-12.774,0.812-18.677,2.316c-0.856-3.337-1.978-6.593-3.34-9.755
		c15.439-2.364,27.137-13.511,27.137-26.929c0-15.138-14.879-27.41-33.234-27.41c-13.401,0-24.919,6.556-30.177,15.979
		c-14.825-8.159-32.631-12.922-51.79-12.922c-47.872,0-87.31,29.698-92.77,67.972c-3.166-0.267-6.378-0.406-9.63-0.406
		c-39.411,0-73.098,20.134-86.83,48.602c-13.564-3.58-28.011-5.531-43.015-5.531c-23.361,0-45.374,4.714-64.776,13.007
		c-9.695-18.799-32.292-31.982-58.623-31.982c-27.045,0-50.137,13.913-59.369,33.528c-7.561-7.232-16.524-13.432-26.555-18.31
		c3.567-6.557,5.568-13.819,5.568-21.472c0-29.007-28.511-52.522-63.681-52.522c-8.134,0-15.904,1.272-23.055,3.564
		c-0.476-0.487-0.944-0.978-1.43-1.458c7.427-5.027,12.167-12.654,12.167-21.196c0-15.138-14.879-27.41-33.234-27.41
		c-5,0-9.724,0.937-13.977,2.568c-6.74-14.522-23.752-24.853-43.73-24.853c-22.156,0-40.675,12.698-45.558,29.741
		c-5.134,0.477-10.178,1.19-15.13,2.109c-1.956-19.232-21.468-34.346-45.292-34.346c-1.371,0-2.72,0.071-4.06,0.169
		c0.021-0.822,0.068-1.639,0.068-2.465c0-50.886-39.627-94.129-94.815-109.904c0.422-2.082,0.666-4.214,0.666-6.396
		c0-14.825-10.131-27.684-24.984-34.166v475.072H1280z"/>
	<g>
		<g>
			<path fill="#47646B" d="M665.874,543.532l0.234-97.497h-9.924v-11.999h-19.241v-7.714h-6.279V409.61h-6.886v16.713h-2.228v7.714
				h-3.848v11.999h-8.304v62.566h-36.456v29.569h-10.937v-62.566h-20.254v-13.07H530.41v-90.206h-12.557v-50.647h-5.671V286.3
				h-3.038v-15.106h-4.861V286.3h-2.228v35.381h-12.962V286.3h-3.038v-15.106h-4.861V286.3h-2.228v35.381h-3.646v50.647h-7.494
				v103.276h-72.912V523.6h-10.937V385.612h-11.545v-38.996h-5.772v-8.999h-13.975v-24.855h-6.076v24.855h-3.038v8.999h-7.595
				v-24.935h-10.025v-39.559h-4.861v39.559h-11.848v24.935h-4.861v38.996h-9.722V802H1281V569.67h-7.553v-4.174h-8.22v-8.695h-1.315
				v-23.303h-2.959v-15.13h-11.672v-6.956h-3.123v-8h-2.302v8h-0.822v6.956h-2.794v15.13h-2.302v23.303h-2.959v8.695h-12.37V552.54
				h-7.767v-10.434h-5.178v-13.304h-11.589V516.15h-7.48v-91.866h-7.192v-28.521h-3.082v-10.826l-5.24,4.239v-26.282h-1.541v27.529
				l-3.699,2.992v2.348h-3.576v28.521h-7.562v96.171h-7.562v25.912h-10.698v-63.906h-9.358v-15.396h-14.136V441.75h-13.193v-6.076
				h-14.179v6.076h-10.299v40.711h-4.861v83.135h-6.886V523.6h-9.924v-18.962l-34.431-16.177v35.14h-3.443v41.996h-3.241v-13.284
				h-12.593c-6.32-30.816-48.445-54.638-99.509-54.638c-51.064,0-93.189,23.822-99.509,54.638h-17.252v15.106h-7.696v-69.743
				h-69.475v46.388 M1067.531,574.166h6.886v21.052h-6.886V574.166z M1016.492,574.166h3.241v21.052h-3.241V574.166z"/>
		</g>
		<g>
			<rect x="90.629" y="197.517" fill="#47646B" width="3.363" height="46.006"/>
			<path fill="#47646B" d="M502.443,402.599v-37.974h-4.861v-24.282h-11.848v-38.522h-4.861v38.522h-10.025v24.282h-7.595v-8.763
				h-3.038v-24.203h-6.076v24.203h-13.975v8.763h-5.772v37.974h-11.545v134.37H411.91v-46.737h-72.912V389.663h-7.494v-49.319
				h-3.646v-34.453h-2.228v-14.71h-4.861v14.71h-3.038v34.453h-12.962v-34.453h-2.228v-14.71h-4.861v14.71h-3.038v34.453h-5.671
				v49.319h-12.557v87.841h-11.342v12.727h-20.254v60.925h-10.937v-28.794h-36.456v-60.925h-8.304v-11.684h-3.848v-7.511h-2.228
				v-16.275h-6.886v16.275h-6.279v7.511h-19.241v11.684h-9.924v99.734h-27.387c-8.232-90.759-8.993-191.203-9.062-206.77h9.538
				v-6.807l5.929-7.251v-8.685l-10.107-9.52h4.177v-6.807h-8.482v-6.807h-3.392v-6.703h-3.949v-51.664l5.114-5.167v-2.582v-2.817
				l-5.114-5.086v-37.635h-2.608v-13.614h-6.125v13.614H86.64v37.635l-5.266,5.321v2.582v2.817l5.114,5.086h0.152v51.51h-3.95v6.703
				h-3.392v6.807h-8.482v6.807h4.481l-10.41,9.52v8.685l5.929,7.251v6.807h8.587c-0.068,15.324-0.807,112.881-8.68,202.493H53.222
				v-45.172H26.892v67.915h-7.696v-14.71H1.944c-6.32-30.008-48.445-53.205-99.509-53.205s-93.189,23.198-99.509,53.205h-12.593
				v12.936h-3.241v-40.895h-3.443V502.75l-34.431,15.753v18.465h-9.924v40.895h-6.886v-80.955h-4.861v-39.643h-10.299v-5.916
				h-14.179v5.916h-13.193v24.651h-14.136v14.992h-9.358v62.23h-10.698v-25.233h-7.562v-93.649h-7.562v-27.773h-3.575v-2.286
				l-3.699-2.914v-26.807h-1.541v25.593l-5.24-4.128v10.542h-3.082v27.773h-7.192v89.458h-7.48v12.32h-11.59v12.955h-5.178v10.161
				h-7.767v12.616h-12.37v-8.467h-2.959v-22.692h-2.302v-14.733h-2.794V525.1h-0.822v-7.79h-2.302v7.79h-3.123v6.774h-11.672v14.733
				h-2.959v22.692h-1.315v8.467h-8.22v4.064h-7.553V808.07h986.34V402.599H502.443z M-260.707,606.709h-6.886v-20.5h6.886V606.709z
				 M-209.668,606.709h-3.241v-20.5h3.241V606.709z"/>
		</g>
	</g>
</g>
<g id="DESIGNED_BY_FREEPIK">
</g>
</svg>
